<?xml version="1.0" encoding="utf-8"?>
<?xml-stylesheet type="text/xsl" href="rss1.xsl"?>
<rss version="2.0" xmlns:atom="http://www.w3.org/2005/Atom" xmlns:content="http://purl.org/rss/1.0/modules/content/" xmlns:dc="http://purl.org/dc/elements/1.1/" xmlns:media="http://search.yahoo.com/mrss/">
<channel>
 <title>Getty</title>
 <link>http://www.gettyimg.com/</link>
 <atom:link href="http://www.gettyimg.com/" rel="self" type="application/rss+xml" />

 
                <item>
                <title><![CDATA[【Cinema Center】MOVIE - Burn The Stage: The Movie - 01/17/2019 - 1080p MKV YouTube Premium Originals]]></title>
                <link><![CDATA[https://sharemania.us/threads/burn-the-stage-the-movie-01-17-2019-1080p-mkv-youtube-premium-originals.224684/]]></link>
                <description><![CDATA[<article>
<blockquote class="messageText SelectQuoteContainer ugc baseHtml">
<img src="https://pic-bstarstatic.akamaized.net/ugc/a8f5a0152991563e2bcf49f25cfcc0d4.jpg" class="bbCodeImage LbImage" alt="[​IMG]" data-url="https://pic-bstarstatic.akamaized.net/ugc/a8f5a0152991563e2bcf49f25cfcc0d4.jpg" style=""><br>
<br>
<img src="https://i.imgur.com/JSQUJBr.jpg" class="bbCodeImage LbImage" alt="[​IMG]" data-url="https://i.imgur.com/JSQUJBr.jpg" style=""> <br>
<div data-s9e-mediaembed="youtube" style="display:inline-block;width:100%;max-width:640px"><div style="overflow:hidden;position:relative;padding-bottom:56.25%"><iframe allowfullscreen="" scrolling="no" style="background:url(https://i.ytimg.com/vi/g_6FoBgps9Y/hqdefault.jpg) 50% 50% / cover;border:0;height:100%;left:0;position:absolute;width:100%" src="https://www.youtube.com/embed/g_6FoBgps9Y"></iframe></div></div><br>
<b><span style="text-decoration: underline">Synopsis</span></b><br>
Burn the Stage: the Movie is the first movie from BTS, going behind-the-scenes of the BTS WINGS TOUR to reveal the full story of the band’s meteoric rise to fame. This unmissable film provides an intimate look at what happens when the most successful global boy band of all time breaks down barriers and invades the mainstream music scene. Exclusive tour footage and brand-new one-on-one interviews with BTS members give fans an unprecedented glimpse into their lives and an opportunity for everyone to celebrate together worldwide. <br>
<span style="text-decoration: underline"><b>Runtime</b></span>: 1:20:47 (YouTube Premium Originals)<span style="text-decoration: underline"><br>
<b>Rating</b></span>: ALL (Korea, Cinema Screenings), PG (US, Cinema Screenings), No mature content (<a href="http://www.google.com/support/youtube/answer/146399" target="_blank" class="externalLink" rel="nofollow">YouTube Premium Originals</a>)<br>
<b><span style="text-decoration: underline">Release Date</span></b>: November 12, 2018 (Limited Cinema Screenings), January 17, 2019 (Youtube Premium Originals)<br>
<b><span style="text-decoration: underline">Language:</span></b> Korean (YouTube Premium Originals)<br>
<div class="ToggleTriggerAnchor bbCodeSpoilerContainer">
<button type="button" class="button bbCodeSpoilerButton ToggleTrigger Tooltip JsOnly" data-target="> .SpoilerTarget"><span>Spoiler: <span class="SpoilerTitle">MediaInfo</span></span></button>
<div class="SpoilerTarget bbCodeSpoilerText">General<br>
Unique ID : 308261382358781960197128024364741018670 (0xE7E8FB921D9C57486E11CDDC03EFC42E)<br>
Format : Matroska<br>
Format version : Version 4<br>
File size : 1.95 GiB<br>
Duration : 1 h 20 min<br>
Overall bit rate : 3 455 kb/s<br>
Frame rate : 23.976 FPS<br>
Encoded date : 2023-07-15 01:36:13 UTC<br>
Writing application : mkvmerge v78.0 ('Running') 64-bit<br>
Writing library : libebml v1.4.4 + libmatroska v1.7.1 / Lavf60.10.100<br>
<br>
Video<br>
ID : 1<br>
Format : AVC<br>
Format/Info : Advanced Video Codec<br>
Format profile : High@L4<br>
Format settings : CABAC / 2 Ref Frames<br>
Format settings, CABAC : Yes<br>
Format settings, Reference : 2 frames<br>
Codec ID : V_MPEG4/ISO/AVC<br>
Duration : 1 h 20 min<br>
Bit rate : 3 066 kb/s<br>
Width : 1 920 pixels<br>
Height : 1 080 pixels<br>
Display aspect ratio : 16:9<br>
Frame rate mode : Constant<br>
Frame rate : 23.976 (24000/1001) FPS<br>
Color space : YUV<br>
Chroma subsampling : 4:2:0<br>
Bit depth : 8 bits<br>
Scan type : Progressive<br>
Bits/(Pixel*Frame) : 0.062<br>
Stream size : 1.73 GiB (89%)<br>
Title : English<br>
Writing library : x264 core 155 r2901 7d0ff22<br>
Language : English<br>
Default : Yes<br>
Forced : No<br>
Color range : Limited<br>
Color primaries : BT.709<br>
Transfer characteristics : BT.709<br>
Matrix coefficients : BT.709<br>
<br>
Audio<br>
ID : 2<br>
Format : AAC LC<br>
Format/Info : Advanced Audio Codec Low Complexity<br>
Codec ID : A_AAC-2<br>
Duration : 1 h 20 min<br>
Bit rate : 384 kb/s<br>
Channel(s) : 6 channels<br>
Channel layout : C L R Ls Rs LFE<br>
Sampling rate : 48.0 kHz<br>
Frame rate : 46.875 FPS (1024 SPF)<br>
Compression mode : Lossy<br>
Stream size : 223 MiB (11%)<br>
Title : Korean (With English News Voiceovers)<br>
Language : Korean<br>
Default : Yes<br>
Forced : No<br>
<br>
Text #1<br>
ID : 3<br>
Format : UTF-8<br>
Codec ID : S_TEXT/UTF8<br>
Codec ID/Info : UTF-8 Plain Text<br>
Duration : 1 h 19 min<br>
Bit rate : 55 b/s<br>
Frame rate : 0.183 FPS<br>
Count of elements : 878<br>
Stream size : 32.5 KiB (0%)<br>
Title : English<br>
Language : English<br>
Default : Yes<br>
Forced : No<br>
<br>
Text #2<br>
ID : 4<br>
Format : UTF-8<br>
Codec ID : S_TEXT/UTF8<br>
Codec ID/Info : UTF-8 Plain Text<br>
Duration : 1 h 20 min<br>
Bit rate : 59 b/s<br>
Frame rate : 0.192 FPS<br>
Count of elements : 923<br>
Stream size : 34.9 KiB (0%)<br>
Title : German<br>
Language : German<br>
Default : Yes<br>
Forced : No<br>
<br>
Text #3<br>
ID : 5<br>
Format : UTF-8<br>
Codec ID : S_TEXT/UTF8<br>
Codec ID/Info : UTF-8 Plain Text<br>
Duration : 1 h 20 min<br>
Bit rate : 57 b/s<br>
Frame rate : 0.196 FPS<br>
Count of elements : 943<br>
Stream size : 33.9 KiB (0%)<br>
Title : Spanish<br>
Language : Spanish (Latin America)<br>
Default : Yes<br>
Forced : No<br>
<br>
Text #4<br>
ID : 6<br>
Format : UTF-8<br>
Codec ID : S_TEXT/UTF8<br>
Codec ID/Info : UTF-8 Plain Text<br>
Duration : 1 h 20 min<br>
Bit rate : 61 b/s<br>
Frame rate : 0.196 FPS<br>
Count of elements : 943<br>
Stream size : 35.8 KiB (0%)<br>
Title : French<br>
Language : French<br>
Default : Yes<br>
Forced : No<br>
<br>
Text #5<br>
ID : 7<br>
Format : UTF-8<br>
Codec ID : S_TEXT/UTF8<br>
Codec ID/Info : UTF-8 Plain Text<br>
Duration : 1 h 20 min<br>
Bit rate : 58 b/s<br>
Frame rate : 0.197 FPS<br>
Count of elements : 948<br>
Stream size : 34.4 KiB (0%)<br>
Title : Indonesian<br>
Language : Indonesian<br>
Default : Yes<br>
Forced : No<br>
<br>
Text #6<br>
ID : 8<br>
Format : UTF-8<br>
Codec ID : S_TEXT/UTF8<br>
Codec ID/Info : UTF-8 Plain Text<br>
Duration : 1 h 20 min<br>
Bit rate : 52 b/s<br>
Frame rate : 0.207 FPS<br>
Count of elements : 996<br>
Stream size : 31.0 KiB (0%)<br>
Title : Japanese<br>
Language : Japanese<br>
Default : Yes<br>
Forced : No<br>
<br>
Text #7<br>
ID : 9<br>
Format : UTF-8<br>
Codec ID : S_TEXT/UTF8<br>
Codec ID/Info : UTF-8 Plain Text<br>
Duration : 1 h 19 min<br>
Bit rate : 68 b/s<br>
Frame rate : 0.171 FPS<br>
Count of elements : 818<br>
Stream size : 40.1 KiB (0%)<br>
Title : Korean<br>
Language : Korean<br>
Default : Yes<br>
Forced : No<br>
<br>
Text #8<br>
ID : 10<br>
Format : UTF-8<br>
Codec ID : S_TEXT/UTF8<br>
Codec ID/Info : UTF-8 Plain Text<br>
Duration : 1 h 20 min<br>
Bit rate : 54 b/s<br>
Frame rate : 0.195 FPS<br>
Count of elements : 937<br>
Stream size : 32.0 KiB (0%)<br>
Title : Portuguese (Brazil)<br>
Language : Portuguese (BR)<br>
Default : Yes<br>
Forced : No<br>
<br>
Text #9<br>
ID : 11<br>
Format : UTF-8<br>
Codec ID : S_TEXT/UTF8<br>
Codec ID/Info : UTF-8 Plain Text<br>
Duration : 1 h 20 min<br>
Bit rate : 96 b/s<br>
Frame rate : 0.200 FPS<br>
Count of elements : 960<br>
Stream size : 56.9 KiB (0%)<br>
Title : Russian<br>
Language : Russian<br>
Default : Yes<br>
Forced : No</div>
</div>
<div class="bbCodeBlock bbCodeVfcHH HiddenContent">
<div class="attribution type">Hidden Content:</div>
<blockquote>You must either reply or click 'Like' to see the hidden information contained here.</blockquote>
</div>
<div class="messageTextEndMarker">&nbsp;</div>
</blockquote>
</article>]]></description>
                <author><![CDATA[charlescanlom]]></author>
                </item>

                
                <item>
                <title><![CDATA[【Singles (lossless)】FLAC - Alan Walker &amp; Zak Abel - Endless Summer | Qobuz 16-bit / 44.1kHz]]></title>
                <link><![CDATA[https://sharemania.us/threads/alan-walker-zak-abel-endless-summer-qobuz-16-bit-44-1khz.224683/]]></link>
                <description><![CDATA[<article>
<blockquote class="messageText SelectQuoteContainer ugc baseHtml">
<img src="https://images2.imgbox.com/64/84/MFgwOR4O_o.jpg" class="bbCodeImage LbImage" alt="[​IMG]" data-url="https://images2.imgbox.com/64/84/MFgwOR4O_o.jpg" style=""> <br>
<br>
<b>Genre: <span style="color: #0059b3">Electronic, Pop</span><br>
Style: <span style="color: #0059b3">Dance-pop</span><br>
Year: <span style="color: #0059b3">2023</span><br>
Source: <span style="color: #0059b3">Qobuz</span></b><br>
<br>
"<b>Endless Summer</b>" is a song produced by British-Norwegian record producer and DJ Alan Walker incorporating vocals provided by British singer-songwriter Zak Abel. Released on July 14 2023 on the MER Recordings label, the song is described as a euphoric dance-pop tune that perfectly captures the carefree and blissful essence of the season it evokes. <i>“It opens with organic melodies that move into a euphonious chorus consisting of a groovy bassline and understated percussion, complemented by the positive and hopeful message in the chorus”. “Endless Summer” has reportedly already received more than 1.5 million organic impressions on social media platforms even before its official release, “which makes it sure to be on rotation for all the memorable moments with friends and family this summer,” according to the press release.</i><br>
<br>
Walker, from the Norwegian city of Bergen, has more than 115 million followers across his social accounts, 8.7 billion YouTube views, and more than 50 billion audio and video streams.<br>
<br>
Englishman Abel, meanwhile, is one of the most high-profile electronic dance music vocalists, whose hits include “Freedom,” with producer and DJ Kygo, which has been streamed more than 200 million times; “Ten More Days,” with Avicii; “Bad,” with Don Diablo; and “The Power” with Duke Dumont. His new album, “Love Over Fear,” is due for release on Aug. 25 on the UK-based BMG label.<br>
<br>
<i>“Like most people, I’m always looking forward to summertime,”</i> said Walker. <i>“It’s the most exciting and blissful season and it’s the best launchpad for joyful moments with family and friends while I’m on the road.”<br>
“It was these bright moments that inspired me to create a song that captured the buzzing mood into an everlasting summer soundtrack, and Zak Abel’s talent brought it to life in a way only he could do.”</i><br>
<br>
Abel said: <i>“This might be the most euphoric song I’ve ever been a part of. Working with Alan on ‘Endless Summer’ was a great experience, too, so it just makes me wanna jump around and smile, and I’m sure people will react just like me when listening to our track.”</i><br>
<br>
<div class="bbCodeBlock bbCodeVfcHH HiddenContent">
<div class="attribution type">Hidden Content:</div>
<blockquote>You must reply before you can see the hidden data contained here.</blockquote>
</div>
<div class="messageTextEndMarker">&nbsp;</div>
</blockquote>
</article>]]></description>
                <author><![CDATA[ADHDerby]]></author>
                </item>

                </channel></rss>